<?xml version="1.0" encoding="UTF-8"?>
<svg id="Layer_2" data-name="Layer 2" xmlns="http://www.w3.org/2000/svg" viewBox="0 0 434.65 455.56">
  <defs>
    <style>
      .cls-1 {
        fill:currentColor;
      }
    </style>
  </defs>
  <g id="Layer_1-2" data-name="Layer 1">
    <path class="cls-1" d="M233.84,227.78c297.31,0,237.39,184.47-3.15,9.71,240.54,174.76,83.62,288.76-8.26,6,91.88,282.76-102.07,282.76-10.21,0-91.86,282.76-248.78,168.76-8.26-6-240.52,174.76-300.47-9.71-3.15-9.71-297.31,0-237.37-184.47,3.15-9.71-240.52-174.76-83.6-288.76,8.26-6-91.86-282.76,102.09-282.76,10.21,0,91.88-282.76,248.8-168.76,8.26,6,240.54-174.76,300.47,9.71,3.15,9.71Z"/>
  </g>
</svg>