<?xml version="1.0" encoding="UTF-8"?>
<svg id="Layer_2" data-name="Layer 2" xmlns="http://www.w3.org/2000/svg" viewBox="0 0 500.82 521.09">
  <defs>
    <style>
      .cls-1 {
        fill:currentColor;
      }
    </style>
  </defs>
  <g id="Layer_1-2" data-name="Layer 1">
    <g>
      <path class="cls-1" d="M250.41,521.09s0,0,0,0c-23.52,0-42.44-14.74-48.2-37.55l-6.16-24.42c-.97-3.83-3.79-6.84-7.54-8.06-3.76-1.22-7.81-.44-10.84,2.09l-19.34,16.13c-18.06,15.07-42.03,15.87-61.06,2.04-19.03-13.83-25.67-36.87-16.92-58.71l9.37-23.38c1.47-3.67.96-7.76-1.36-10.96-2.32-3.19-6.06-4.95-10-4.68l-25.13,1.68c-23.48,1.56-43.33-11.87-50.6-34.24-7.27-22.37.9-44.92,20.81-57.44l21.32-13.41c3.34-2.1,5.34-5.71,5.34-9.66s-2-7.56-5.34-9.66l-21.32-13.41c-19.91-12.52-28.08-35.07-20.81-57.44,7.27-22.37,27.13-35.81,50.6-34.24l25.13,1.69c3.93.27,7.68-1.49,10-4.68,2.32-3.19,2.83-7.29,1.36-10.95l-9.37-23.38c-8.75-21.84-2.11-44.88,16.92-58.71,19.03-13.83,43-13.02,61.06,2.04l19.34,16.13c3.03,2.53,7.08,3.31,10.84,2.09,3.76-1.22,6.57-4.23,7.54-8.06l6.16-24.42C207.97,14.74,226.88,0,250.41,0c23.52,0,42.44,14.74,48.2,37.55l6.16,24.42c.97,3.83,3.79,6.84,7.54,8.06,3.75,1.22,7.81.44,10.84-2.09l19.34-16.13c18.06-15.07,42.03-15.87,61.06-2.05,19.03,13.83,25.67,36.87,16.92,58.71l-9.37,23.38c-1.47,3.67-.96,7.76,1.36,10.95,2.32,3.19,6.06,4.95,10,4.68l25.13-1.69c23.49-1.57,43.33,11.87,50.6,34.24,7.27,22.37-.9,44.92-20.81,57.44l-21.32,13.41c-3.34,2.1-5.34,5.71-5.34,9.66,0,3.95,2,7.56,5.34,9.66l21.32,13.41c19.91,12.52,28.08,35.07,20.81,57.44-7.27,22.37-27.14,35.8-50.6,34.24l-25.13-1.68c-3.94-.27-7.68,1.48-10,4.68-2.32,3.19-2.83,7.29-1.36,10.95l9.37,23.38c8.75,21.83,2.11,44.88-16.92,58.71-19.03,13.83-43,13.02-61.06-2.05l-19.34-16.13c-3.03-2.53-7.09-3.31-10.84-2.09-3.76,1.22-6.58,4.23-7.54,8.06l-6.16,24.42c-5.76,22.81-24.68,37.55-48.2,37.55ZM184.95,447.49c1.5,0,3.01.24,4.48.71,4.74,1.54,8.3,5.35,9.52,10.18l6.16,24.42c6.57,26.04,28.5,35.28,45.29,35.28s38.72-9.24,45.29-35.28l6.16-24.42c1.22-4.83,4.78-8.64,9.52-10.18,4.74-1.54,9.86-.55,13.69,2.64l19.34,16.13c20.62,17.21,43.8,11.79,57.38,1.92,13.58-9.87,25.89-30.23,15.9-55.16l-9.37-23.38c-1.85-4.63-1.21-9.8,1.72-13.83,2.93-4.03,7.65-6.24,12.63-5.91l25.13,1.68c26.81,1.81,42.36-16.21,47.55-32.17,5.19-15.96,3.18-39.68-19.56-53.97l-21.32-13.41c-4.22-2.65-6.74-7.22-6.74-12.2,0-4.99,2.52-9.55,6.74-12.2l21.32-13.41c22.74-14.3,24.75-38.01,19.56-53.97-5.19-15.96-20.77-33.96-47.55-32.17l-25.13,1.69c-4.98.33-9.7-1.88-12.63-5.91-2.93-4.03-3.57-9.21-1.72-13.83l9.37-23.38c9.99-24.93-2.32-45.3-15.9-55.16-13.58-9.87-36.76-15.28-57.38,1.92l-19.34,16.13c-3.83,3.19-8.94,4.18-13.69,2.64-4.74-1.54-8.3-5.35-9.52-10.18l-6.16-24.42c-6.57-26.04-28.5-35.28-45.29-35.28-16.79,0-38.72,9.24-45.29,35.28l-6.16,24.42c-1.22,4.83-4.78,8.64-9.52,10.18-4.74,1.54-9.86.55-13.69-2.64l-19.34-16.13c-20.62-17.2-43.8-11.79-57.38-1.92-13.58,9.87-25.89,30.23-15.9,55.16l9.37,23.38c1.85,4.63,1.21,9.8-1.72,13.83-2.93,4.03-7.66,6.24-12.63,5.91l-25.13-1.69c-26.79-1.8-42.36,16.21-47.55,32.17-5.19,15.96-3.18,39.68,19.56,53.97l21.32,13.41c4.22,2.65,6.74,7.22,6.74,12.2s-2.52,9.55-6.74,12.2l-21.32,13.41c-22.73,14.3-24.74,38.01-19.56,53.97,5.19,15.96,20.75,33.97,47.55,32.17l25.13-1.68c4.96-.32,9.69,1.88,12.63,5.91,2.93,4.03,3.57,9.21,1.72,13.83l-9.37,23.38c-9.99,24.93,2.32,45.3,15.9,55.16,13.58,9.87,36.75,15.28,57.38-1.92l19.34-16.13c2.64-2.2,5.89-3.36,9.21-3.36Z"/>
      <path class="cls-1" d="M266.92,260.54c297.31,0,237.39,184.47-3.15,9.71,240.54,174.76,83.62,288.76-8.26,6,91.88,282.76-102.07,282.76-10.21,0-91.86,282.76-248.78,168.76-8.26-6-240.52,174.76-300.47-9.71-3.15-9.71-297.31,0-237.37-184.47,3.15-9.71-240.52-174.76-83.6-288.76,8.26-6-91.86-282.76,102.09-282.76,10.21,0,91.88-282.76,248.8-168.76,8.26,6,240.54-174.76,300.47,9.71,3.15,9.71Z"/>
    </g>
  </g>
</svg>